HIERARCHY
ROOT root
{
  OFFSET 0.000000 0.000000 0.000000
  CHANNELS 6 Xposition Yposition Zposition Zrotation Yrotation Xrotation
  JOINT lhipjoint
  {
    OFFSET 0.000000 0.000000 0.000000
    CHANNELS 3 Zrotation Yrotation Xrotation
    JOINT lfemur
    {
      OFFSET 0.093514 -0.101759 0.035265
      CHANNELS 3 Zrotation Yrotation Xrotation
      JOINT ltibia
      {
        OFFSET 0.146598 -0.402774 0.000000
        CHANNELS 3 Zrotation Yrotation Xrotation
        JOINT lfoot
        {
          OFFSET 0.140680 -0.386515 0.000000
          CHANNELS 3 Zrotation Yrotation Xrotation
          JOINT ltoes
          {
            OFFSET 0.011122 -0.030557 0.121119
            CHANNELS 3 Zrotation Yrotation Xrotation
            End Site
            {
              OFFSET 0.000000 -0.000000 0.062794
            }
          }
        }
      }
    }
  }
  JOINT rhipjoint
  {
    OFFSET 0.000000 0.000000 0.000000
    CHANNELS 3 Zrotation Yrotation Xrotation
    JOINT rfemur
    {
      OFFSET -0.090915 -0.101759 0.035264
      CHANNELS 3 Zrotation Yrotation Xrotation
      JOINT rtibia
      {
        OFFSET -0.146475 -0.402436 0.000000
        CHANNELS 3 Zrotation Yrotation Xrotation
        JOINT rfoot
        {
          OFFSET -0.139294 -0.382707 0.000000
          CHANNELS 3 Zrotation Yrotation Xrotation
          JOINT rtoes
          {
            OFFSET -0.012996 -0.035705 0.120434
            CHANNELS 3 Zrotation Yrotation Xrotation
            End Site
            {
              OFFSET -0.000000 -0.000000 0.062975
            }
          }
        }
      }
    }
  }
  JOINT lowerback
  {
    OFFSET 0.000000 0.000000 0.000000
    CHANNELS 3 Zrotation Yrotation Xrotation
    JOINT upperback
    {
      OFFSET 0.001107 0.115965 -0.007965
      CHANNELS 3 Zrotation Yrotation Xrotation
      JOINT thorax
      {
        OFFSET 0.000576 0.116521 -0.003342
        CHANNELS 3 Zrotation Yrotation Xrotation
        JOINT lowerneck
        {
          OFFSET 0.000085 0.116730 0.000454
          CHANNELS 3 Zrotation Yrotation Xrotation
          JOINT upperneck
          {
            OFFSET 0.000402 0.088455 0.008449
            CHANNELS 3 Zrotation Yrotation Xrotation
            JOINT head
            {
              OFFSET 0.001935 0.088076 -0.005648
              CHANNELS 3 Zrotation Yrotation Xrotation
              End Site
              {
                OFFSET 0.000737 0.091756 -0.002972
              }
            }
          }
        }
        JOINT lclavicle
        {
          OFFSET 0.000085 0.116730 0.000454
          CHANNELS 3 Zrotation Yrotation Xrotation
          JOINT lhumerus
          {
            OFFSET 0.199929 0.051046 -0.009801
            CHANNELS 3 Zrotation Yrotation Xrotation
            JOINT lradius
            {
              OFFSET 0.274610 -0.000000 -0.000000
              CHANNELS 3 Zrotation Yrotation Xrotation
              JOINT lwrist
              {
                OFFSET 0.189402 -0.000000 0.000000
                CHANNELS 3 Zrotation Yrotation Xrotation
                End Site
                {
                  OFFSET 0.094701 -0.000000 0.000000
                }
              }
            }
          }
        }
        JOINT rclavicle
        {
          OFFSET 0.000085 0.116730 0.000454
          CHANNELS 3 Zrotation Yrotation Xrotation
          JOINT rhumerus
          {
            OFFSET -0.197444 0.042894 -0.018410
            CHANNELS 3 Zrotation Yrotation Xrotation
            JOINT rradius
            {
              OFFSET -0.283717 -0.000000 0.000000
              CHANNELS 3 Zrotation Yrotation Xrotation
              JOINT rwrist
              {
                OFFSET -0.189897 -0.000000 0.000000
                CHANNELS 3 Zrotation Yrotation Xrotation
                End Site
                {
                  OFFSET -0.094949 -0.000000 0.000000
                }
              }
            }
          }
        }
      }
    }
  }
}
MOTION
Frames: 8
Frame Time: 0.04166667
0.00000 0.93286 0.00000 28.64190 -68.95450 -20.53560 0.00000 -0.00000 0.00000 -31.45338 28.20389 -47.60518 7.06112 15.38314 49.10511 0.69006 9.73519 -22.09904 0.01064 -0.66596 -1.83011 0.00000 -0.00000 0.00000 -1.66376 28.54097 -29.26783 -7.89394 -16.04069 52.17977 -1.69887 6.16872 -23.42664 -1.64413 8.08177 -22.96272 -3.91645 -5.22345 19.04160 1.11617 -7.98138 10.03570 4.73436 -4.42634 0.95373 5.80198 16.95600 -8.59194 -22.76520 21.66140 -9.46722 -6.29959 10.67730 1.86842 0.00000 -0.00000 0.00000 -153.12200 -56.30630 110.22878 11.63659 -19.25740 -1.98079 0.00000 0.00000 30.34270 0.00000 -0.00000 0.00000 119.87677 41.00411 67.57769 -44.50762 50.52497 -21.85802 -0.00000 0.00000 -57.33850
0.00000 0.92389 0.00000 22.34530 -67.54640 -13.42950 0.00000 -0.00000 0.00000 -31.04096 27.78500 -51.72563 7.88250 16.03215 52.13837 0.96192 6.02498 -21.64645 0.01982 0.90893 2.49826 0.00000 -0.00000 0.00000 -1.30812 28.68172 -31.87580 -8.53940 -16.50201 54.48314 -1.81031 3.83298 -24.51250 -1.41269 7.51735 -21.25742 -1.95263 -5.58666 20.90500 1.32564 -8.21961 11.12390 4.05925 -4.52023 0.99022 7.38627 16.99990 -8.80725 -24.44720 21.41480 -10.82010 -7.03062 10.58130 1.89138 -0.00000 0.00000 0.00000 -154.47054 -57.56273 116.46812 10.58879 -17.65522 -1.64904 0.00000 0.00000 31.64980 -0.00000 0.00000 0.00000 123.84506 41.85190 69.32291 -47.33181 51.86101 -24.05913 -0.00000 0.00000 -59.38700
0.00000 0.91590 0.00000 23.16020 -64.13990 -13.04280 0.00000 -0.00000 0.00000 -33.69234 25.86279 -53.70123 8.29145 16.32948 53.60578 1.03112 3.99001 -21.01310 0.00212 0.29724 0.81670 0.00000 -0.00000 0.00000 -4.10135 26.78631 -34.29227 -9.32571 -17.01281 57.20987 -2.01945 1.91191 -26.36409 -1.81346 8.46622 -24.13934 -1.88723 -6.43565 22.12680 0.23926 -9.37790 12.25700 3.14555 -5.09930 1.53986 6.74414 17.00470 -9.55396 -23.64440 21.21540 -12.16420 -6.76534 10.54850 1.39702 0.00000 -0.00000 0.00000 -155.19734 -58.97010 115.50882 9.44516 -15.86704 -1.31919 0.00000 0.00000 36.75190 0.00000 -0.00000 0.00000 127.12326 42.73454 72.51453 -48.11633 52.20695 -24.67763 -0.00000 0.00000 -61.56090
0.00000 0.90854 0.00000 20.85420 -60.32560 -9.71674 0.00000 -0.00000 0.00000 -34.15917 22.41783 -55.16651 8.76863 16.65650 55.28649 1.01095 3.04644 -20.32164 0.01452 0.77813 2.13851 0.00000 -0.00000 0.00000 -5.18890 25.17038 -35.81489 -9.98976 -17.40409 59.45414 -2.11438 -0.29297 -27.64089 -1.67121 8.14474 -23.15457 -0.88433 -7.09202 22.78810 -0.32884 -10.06480 13.28100 2.13678 -5.38943 2.13580 7.55883 16.80510 -10.03620 -23.37950 20.93940 -11.96600 -6.78449 10.36750 1.54525 -0.00000 0.00000 0.00000 -154.58764 -60.73228 116.34873 9.17898 -15.44521 -1.24735 0.00000 0.00000 35.97620 -0.00000 0.00000 0.00000 129.69283 43.04440 74.84732 -46.20348 51.34462 -23.17481 -0.00000 0.00000 -61.56240
0.00000 0.90057 0.00000 16.40840 -55.60380 -4.14794 0.00000 -0.00000 0.00000 -32.66918 17.31179 -56.55813 9.33946 17.02127 57.25683 0.97870 2.59792 -19.79516 0.00660 0.52451 1.44128 0.00000 -0.00000 0.00000 -4.54444 23.16620 -37.47554 -10.66635 -17.76791 61.69321 -2.21416 -3.38580 -29.48241 -1.56124 7.88518 -22.36587 1.69418 -7.79955 22.96080 -0.48797 -10.45740 13.93170 0.65229 -5.40770 2.33993 8.67424 16.40680 -10.58940 -22.62880 20.43980 -11.19450 -6.71261 10.03290 1.80279 -0.00000 0.00000 0.00000 -153.34633 -62.04051 112.08533 8.77620 -14.80305 -1.14226 0.00000 0.00000 38.04420 -0.00000 0.00000 0.00000 131.41367 43.29391 76.33329 -43.34420 49.93103 -20.96379 -0.00000 0.00000 -63.12110
0.00000 0.89492 0.00000 15.40540 -49.41200 -2.45402 0.00000 -0.00000 0.00000 -32.71742 12.31274 -55.87107 9.51719 17.12926 57.86212 0.88505 2.22681 -18.70825 0.00885 0.60731 1.66888 0.00000 -0.00000 0.00000 -4.85715 20.34127 -37.25414 -11.35187 -18.10301 63.91904 -2.40385 -6.06629 -31.92450 -1.36189 7.38655 -20.86575 2.77137 -8.04394 23.61100 -0.13283 -10.51250 14.68870 0.47947 -5.36199 2.79808 7.26596 15.24820 -11.79930 -21.49560 19.02400 -10.60330 -6.29533 9.29736 1.67981 0.00000 -0.00000 0.00000 -154.92676 -63.63981 110.65999 8.31611 -14.06397 -1.02758 0.00000 0.00000 36.88220 0.00000 -0.00000 0.00000 130.75187 43.98044 78.17034 -40.20983 48.19372 -18.59549 -0.00000 0.00000 -63.97580
0.00000 0.88901 0.00000 15.42590 -42.12110 -1.18025 0.00000 -0.00000 0.00000 -33.44572 6.86797 -54.91618 9.49696 17.11709 57.79340 0.79424 0.55569 -17.05040 0.03707 1.24276 3.41700 0.00000 -0.00000 0.00000 -5.55659 17.21513 -37.25740 -12.13011 -18.44511 66.40062 -2.57045 -9.00743 -34.50436 -0.95638 6.22740 -17.44565 3.24725 -7.65041 24.19430 0.15383 -9.82666 15.40870 0.38750 -4.95830 3.34377 7.72202 13.79020 -14.07770 -20.17800 17.04080 -9.45361 -6.05774 8.13219 1.99547 -0.00000 0.00000 0.00000 -157.54920 -65.47170 108.99453 7.47544 -12.69902 -0.83300 0.00000 0.00000 37.49410 -0.00000 0.00000 0.00000 131.61364 45.20385 80.42824 -37.48773 46.50899 -16.59294 -0.00000 0.00000 -63.25270
0.00000 0.88350 0.00000 14.15720 -34.76630 1.28207 0.00000 -0.00000 0.00000 -33.13943 2.06325 -54.61253 9.48857 17.11204 57.76490 0.63108 -1.11653 -14.66652 0.09138 1.94964 5.36651 0.00000 -0.00000 0.00000 -4.59614 14.30008 -37.38388 -12.88383 -18.73981 68.76429 -2.73284 -11.74106 -37.05743 -0.73685 5.48394 -15.29416 4.69332 -7.22679 24.65640 1.53137 -8.85372 15.48240 0.91284 -4.39028 3.28679 7.00847 12.02710 -15.96520 -19.33900 14.88770 -7.80187 -5.83259 6.92564 2.35703 0.00000 0.00000 0.00000 -161.51640 -67.52913 101.39619 6.26543 -10.70413 -0.58755 0.00000 0.00000 42.01570 0.00000 0.00000 0.00000 132.27938 45.89734 83.56306 -33.61206 43.79524 -13.84387 -0.00000 0.00000 -61.60080
